<svg xmlns="http://www.w3.org/2000/svg" width="206" height="38" viewBox="0 0 206 38" fill="none"><g clip-path="url(#clip0_10003_72)"><path d="M12.5394 30.7118L33.7919 9.98721L48.3599 24.1934H58.2217L33.7919 0.769775L0.699219 33.0405L4.99567 37.2303H33.0925L39.777 30.7118H12.5394Z" fill="#DB7146"></path><path d="M38.248 37.1912H47.7102L57.6021 27.9348H48.1499L38.248 37.1912Z" fill="#DB7146"></path><path d="M86.5184 22.3128H78.0754L77.0962 25.08H68.0337L78.0754 0.954834H86.5184L96.5602 25.08H87.4976L86.5184 22.3128ZM84.2603 15.8528L82.2919 10.3184L80.3236 15.8528H84.2503H84.2603Z" fill="#2d233b"></path><path d="M121.949 0.954834V25.08H115.255L115.215 24.9728L106.522 15.502V25.08H98.0088V0.954834H104.743L113.436 10.64V0.954834H121.949Z" fill="#2d233b"></path><path d="M145.82 14.2548C145.82 21.5236 141.923 25.6061 134.719 25.6061C127.515 25.6061 123.838 21.9133 123.588 15.3169H131.881C132.101 17.0512 132.9 18.1912 134.609 18.1912C136.427 18.1912 137.157 16.8759 137.157 14.6056V0.954834H145.82V14.2548Z" fill="#2d233b"></path><path d="M163.575 22.3128H155.132L154.153 25.08H145.09L155.132 0.954834H163.575L173.617 25.08H164.554L163.575 22.3128ZM161.317 15.8528L159.349 10.3184L157.38 15.8528H161.307H161.317Z" fill="#2d233b"></path><path d="M194.789 17.9866V25.08H175.065V0.954834H183.578V17.9866H194.779H194.789Z" fill="#2d233b"></path><path d="M205.301 0.954834V25.08H196.788V0.954834H205.301Z" fill="#2d233b"></path><path d="M73.749 34.3365H75.2078C74.888 36.1001 73.5392 37.2304 71.7306 37.2304C69.6823 37.2304 68.0337 35.7396 68.0337 33.6447C68.0337 31.5498 69.6823 30.0591 71.7306 30.0591C73.5392 30.0591 74.888 31.1893 75.2078 32.9529H73.749C73.4892 31.9299 72.7798 31.355 71.7306 31.355C70.4317 31.355 69.4725 32.2806 69.4725 33.6447C69.4725 35.0088 70.4317 35.9345 71.7306 35.9345C72.7798 35.9345 73.4892 35.3499 73.749 34.3365Z" fill="#2d233b"></path><path d="M80.8133 35.7201H77.546L76.9565 37.1037H75.4277L78.5152 30.176H79.8441L82.9116 37.1037H81.3928L80.8033 35.7201H80.8133ZM80.2937 34.4924L79.1746 31.8422L78.0556 34.4924H80.2937Z" fill="#2d233b"></path><path d="M89.4062 32.6022C89.4062 34.1514 88.1972 35.1745 86.3687 35.1745H85.2596V37.1135H83.8408V30.1858H86.5786C88.2772 30.1858 89.4062 31.1504 89.4062 32.6119V32.6022ZM88.0074 32.6022C88.0074 31.9201 87.4079 31.4525 86.5186 31.4525H85.2497V33.8981H86.5186C87.4079 33.8981 88.0074 33.3817 88.0074 32.6022Z" fill="#2d233b"></path><path d="M91.6942 30.176V37.1037H90.2754V30.176H91.6942Z" fill="#2d233b"></path><path d="M98.8481 31.4622H96.4301V37.1037H95.0113V31.4622H92.5933V30.176H98.8381V31.4622H98.8481Z" fill="#2d233b"></path><path d="M103.555 35.7201H100.287L99.6977 37.1037H98.1689L101.256 30.176H102.585L105.653 37.1037H104.134L103.545 35.7201H103.555ZM103.025 34.4924L101.906 31.8422L100.787 34.4924H103.025Z" fill="#2d233b"></path><path d="M111.658 35.8273V37.1135H106.572V30.1858H107.991V35.8273H111.658Z" fill="#2d233b"></path><path d="M122.739 37.1135H121.32V33.2453L119.471 36.1002H118.612L116.744 33.2063L116.764 37.1232H115.345V30.1956H116.344L119.042 34.395L121.739 30.1956H122.739V37.1232V37.1135Z" fill="#2d233b"></path><path d="M129.034 35.7201H125.766L125.177 37.1037H123.648L126.735 30.176H128.064L131.132 37.1037H129.613L129.024 35.7201H129.034ZM128.514 34.4924L127.395 31.8422L126.276 34.4924H128.514Z" fill="#2d233b"></path><path d="M134.939 34.9114H133.48V37.1135H132.061V30.1858H135.059C136.657 30.1858 137.836 31.1212 137.836 32.5535C137.836 33.5181 137.297 34.2684 136.447 34.6386L138.296 37.1135H136.567L134.939 34.9114ZM133.47 33.6253H134.999C135.778 33.6253 136.427 33.2063 136.427 32.5437C136.427 31.8812 135.778 31.4622 134.999 31.4622H133.47V33.6253Z" fill="#2d233b"></path><path d="M141.703 34.2684L140.544 35.5448V37.1135H139.125V30.1858H140.544V33.6643L143.731 30.1858H145.43L142.652 33.2355L145.72 37.1135H143.901L141.693 34.2684H141.703Z" fill="#2d233b"></path><path d="M147.878 31.4622V33.0504H151.265V34.3366H147.878V35.8273H151.685V37.1135H146.459V30.1858H151.685V31.4719H147.878V31.4622Z" fill="#2d233b"></path><path d="M158.389 31.4622H155.971V37.1037H154.552V31.4622H152.134V30.176H158.379V31.4622H158.389Z" fill="#2d233b"></path><path d="M164.734 32.2904H163.325C163.235 31.6473 162.816 31.2478 161.916 31.2478C161.137 31.2478 160.617 31.5401 160.617 32.115C160.617 32.6119 160.997 32.8263 161.677 32.9627L162.516 33.1283C163.905 33.4012 164.704 33.9273 164.704 35.0673C164.704 36.3827 163.595 37.2401 161.926 37.2401C160.168 37.2401 158.949 36.3242 158.839 34.8335H160.248C160.358 35.5545 161.017 36.0027 162.006 36.0027C162.786 36.0027 163.235 35.7299 163.235 35.2427C163.235 34.9406 163.055 34.6191 162.296 34.4924L161.147 34.2781C159.738 34.015 159.119 33.3232 159.119 32.2514C159.119 30.9263 160.198 30.0688 161.816 30.0688C163.015 30.0688 164.574 30.5268 164.744 32.3001L164.734 32.2904Z" fill="#2d233b"></path></g><defs><clipPath id="clip0_10003_72"><rect width="206" height="38" fill="#2d233b"></rect></clipPath></defs></svg>